<?xml version="1.0" encoding="utf-8"?>
<!-- Generator: Adobe Illustrator 23.0.6, SVG Export Plug-In . SVG Version: 6.00 Build 0)  -->
<svg version="1.1" id="Layer_1" xmlns="http://www.w3.org/2000/svg" xmlns:xlink="http://www.w3.org/1999/xlink" x="0px" y="0px"
	 viewBox="0 0 131.2 281.2" style="enable-background:new 0 0 131.2 281.2;" xml:space="preserve">
<style type="text/css">
	.st0{fill:#FFFFFF;}
</style>
<title>OT_Monogram</title>
<path class="st0" d="M65.6,127.1c34,0,61.6-27.6,61.6-61.7S99.6,3.8,65.6,3.8C31.5,3.8,4,31.4,4,65.4C4,99.5,31.6,127,65.6,127.1z
	 M65.6,18.8c25.7,0,46.6,20.9,46.6,46.7s-20.9,46.6-46.7,46.6C39.8,112,19,91.2,19,65.4C19,39.7,39.9,18.8,65.6,18.8z"/>
<polygon class="st0" points="12.9,155.9 12.9,170.9 58.1,170.9 58.1,277.4 73.1,277.4 73.1,170.9 118.4,170.9 118.4,155.9 "/>
</svg>
